<svg xmlns="http://www.w3.org/2000/svg" xmlns:xlink="http://www.w3.org/1999/xlink" width="276" height="276" viewBox="0 0 276 276">
  <defs>
    <filter id="Oval_6" x="0" y="0" width="276" height="276" filterUnits="userSpaceOnUse">
      <feOffset dy="16" input="SourceAlpha"/>
      <feGaussianBlur stdDeviation="16" result="blur"/>
      <feFlood flood-color="#a63770" flood-opacity="0.078"/>
      <feComposite operator="in" in2="blur"/>
      <feComposite in="SourceGraphic"/>
    </filter>
  </defs>
  <g id="그룹_1" data-name="그룹 1" transform="translate(1069.5 -2248.5)">
    <g id="icon_bg" transform="translate(-1025.5 2264.5)">
      <g transform="matrix(1, 0, 0, 1, -44, -16)" filter="url(#Oval_6)">
        <circle id="Oval_6-2" data-name="Oval 6" cx="90" cy="90" r="90" transform="translate(48 32)" fill="#fff"/>
      </g>
      <circle id="Path" cx="4.5" cy="4.5" r="4.5" transform="translate(7 195)" fill="rgba(235,47,150,0.4)"/>
      <circle id="Path-2" data-name="Path" cx="5" cy="5" r="5" transform="translate(178 30)" fill="rgba(235,47,150,0.4)"/>
      <circle id="Path-3" data-name="Path" cx="1.5" cy="1.5" r="1.5" transform="translate(17 174)" fill="rgba(235,47,150,0.4)"/>
      <circle id="Oval_8" data-name="Oval 8" cx="6" cy="6" r="6" transform="translate(0 3)" fill="none" stroke="rgba(235,47,150,0.4)" stroke-miterlimit="10" stroke-width="1"/>
      <circle id="Oval_8-2" data-name="Oval 8" cx="2" cy="2" r="2" transform="translate(195)" fill="none" stroke="rgba(235,47,150,0.4)" stroke-miterlimit="10" stroke-width="1"/>
      <circle id="Oval_8-3" data-name="Oval 8" cx="10.5" cy="10.5" r="10.5" transform="translate(170 209)" fill="rgba(235,47,150,0.2)"/>
    </g>
    <g id="插图1" transform="translate(-971 2327.5)">
      <g id="插图" transform="translate(9 5)">
        <path id="Combined_Shape" data-name="Combined Shape" d="M21.3,80a1.923,1.923,0,1,1,0-3.847H40.7A1.923,1.923,0,1,1,40.7,80ZM16.246,67.693A3.85,3.85,0,0,1,12.4,63.846V55.387A31.112,31.112,0,0,1,3.376,44.748a30.641,30.641,0,0,1-.94-25.955,30.991,30.991,0,0,1,16.5-16.375A31.126,31.126,0,0,1,52.921,9.013,30.563,30.563,0,0,1,62,30.769a30.256,30.256,0,0,1-3.376,13.979A31.112,31.112,0,0,1,49.6,55.387v8.459a3.85,3.85,0,0,1-3.846,3.847ZM3.875,30.769a26.8,26.8,0,0,0,12.4,22.614V63.942H45.725V53.384A26.888,26.888,0,0,0,31,3.847,27.054,27.054,0,0,0,3.875,30.769ZM24.789,58.654a1.539,1.539,0,1,1,0-3.077H37.211a1.539,1.539,0,1,1,0,3.077Zm0-6.154a1.538,1.538,0,1,1,0-3.076H37.211a1.538,1.538,0,1,1,0,3.076Z" fill="#1c2833" stroke="#fff" stroke-miterlimit="10" stroke-width="1"/>
        <circle id="Oval_2" data-name="Oval 2" cx="14" cy="14" r="14" transform="translate(17 17)" fill="#ff54b2"/>
        <circle id="Oval_7" data-name="Oval 7" cx="2" cy="2" r="2" transform="translate(25 25)" fill="#fff"/>
      </g>
    </g>
  </g>
</svg>
