<svg xmlns="http://www.w3.org/2000/svg" xmlns:xlink="http://www.w3.org/1999/xlink" width="276" height="276" viewBox="0 0 276 276">
  <defs>
    <filter id="Oval_6" x="0" y="0" width="276" height="276" filterUnits="userSpaceOnUse">
      <feOffset dy="16" input="SourceAlpha"/>
      <feGaussianBlur stdDeviation="16" result="blur"/>
      <feFlood flood-color="#bfbc15" flood-opacity="0.078"/>
      <feComposite operator="in" in2="blur"/>
      <feComposite in="SourceGraphic"/>
    </filter>
  </defs>
  <g id="그룹_2" data-name="그룹 2" transform="translate(554.5 -2317.5)">
    <g id="icon_bg2" transform="translate(-514.5 2333.5)">
      <g transform="matrix(1, 0, 0, 1, -40, -16)" filter="url(#Oval_6)">
        <circle id="Oval_6-2" data-name="Oval 6" cx="90" cy="90" r="90" transform="translate(48 32)" fill="#fff"/>
      </g>
      <circle id="Path" cx="4.5" cy="4.5" r="4.5" transform="translate(7 195)" fill="#fadb14" opacity="0.4"/>
      <circle id="Path-2" data-name="Path" cx="5" cy="5" r="5" transform="translate(178 30)" fill="#fadb14" opacity="0.4"/>
      <circle id="Path-3" data-name="Path" cx="1.5" cy="1.5" r="1.5" transform="translate(17 174)" fill="#fadb14" opacity="0.4"/>
      <circle id="Oval_8" data-name="Oval 8" cx="6" cy="6" r="6" transform="translate(0 3)" fill="none" stroke="rgba(250,219,20,0.6)" stroke-miterlimit="10" stroke-width="1"/>
      <circle id="Oval_8-2" data-name="Oval 8" cx="2" cy="2" r="2" transform="translate(195)" fill="none" stroke="rgba(250,219,20,0.6)" stroke-miterlimit="10" stroke-width="1"/>
      <circle id="Oval_8-3" data-name="Oval 8" cx="10.5" cy="10.5" r="10.5" transform="translate(170 209)" fill="rgba(250,219,20,0.3)"/>
    </g>
    <g id="钻石" transform="translate(-455 2401.5)">
      <g id="钻石-2" data-name="钻石" transform="translate(3 10)">
        <path id="Shape" d="M35.142,69.269l-.211.068-.1-.318a4.763,4.763,0,0,1-1-.806L1.261,27.364A6.313,6.313,0,0,1,.754,20.59L10.766,3.341A7.113,7.113,0,0,1,16.588,0H58.223a7.108,7.108,0,0,1,5.813,3.35l10.08,17.508a6.315,6.315,0,0,1-.534,6.769l-32.845,40.6a4.5,4.5,0,0,1-1.022.815l-.082.263-.178-.054a3.877,3.877,0,0,1-4.312.022Z" transform="translate(0.072 0.043)" stroke="#fff" stroke-miterlimit="10" stroke-width="2"/>
        <g id="Path-4" data-name="Path" transform="translate(26.603 4.93)" fill="#fadb14" stroke-miterlimit="10">
          <path d="M 22.60731506347656 15.16538143157959 L 21.62477493286133 15.16538143157959 L 5.559082183026476e-06 15.16538143157959 L -0.9825344681739807 15.16538143157959 L -0.4042044281959534 14.37108135223389 L 10.2735652923584 -0.2942987978458405 L 10.42333602905273 -0.4999988079071045 L 10.67777538299561 -0.4999988079071045 L 10.94699573516846 -0.4999988079071045 L 11.20143508911133 -0.4999988079071045 L 11.35120582580566 -0.2942987978458405 L 22.02898597717285 14.37108135223389 L 22.60731506347656 15.16538143157959 Z" stroke="none"/>
          <path d="M 10.67777538299561 9.5367431640625e-07 L -3.814697265625e-06 14.66538143157959 L 21.62476539611816 14.66538143157959 L 10.94699573516846 9.5367431640625e-07 L 10.67777538299561 9.5367431640625e-07 M 10.16888523101807 -0.9999990463256836 L 10.67777538299561 -0.9999990463256836 L 10.94699573516846 -0.9999990463256836 L 11.455885887146 -0.9999990463256836 L 11.75541591644287 -0.5886087417602539 L 22.43318557739258 14.0767707824707 L 23.58983612060547 15.66538143157959 L 21.62476539611816 15.66538143157959 L -3.814697265625e-06 15.66538143157959 L -1.965084075927734 15.66538143157959 L -0.8084239959716797 14.0767707824707 L 9.869355201721191 -0.5886087417602539 L 10.16888523101807 -0.9999990463256836 Z" stroke="none" fill="#fadb14"/>
        </g>
        <g id="Path-5" data-name="Path" transform="translate(5.279 24.483)" fill="#fadb14" stroke-miterlimit="10">
          <path d="M 25.21731376647949 32.43061828613281 L -0.3909465968608856 0.3116996884346008 L -1.038116574287415 -0.5000002980232239 L 3.415222181502031e-06 -0.5000002980232239 L 15.26364326477051 -0.5000002980232239 L 15.62790298461914 -0.5000002980232239 L 15.73956298828125 -0.1532803177833557 L 26.08418273925781 31.96563911437988 L 25.21731376647949 32.43061828613281 Z" stroke="none"/>
          <path d="M 3.814697265625e-06 0 L 25.60826301574707 32.11891937255859 L 15.26364326477051 0 L 3.814697265625e-06 0 M -2.076227188110352 -1 L 3.814697265625e-06 -1 L 15.26364326477051 -1 L 15.99215316772461 -1 L 16.21549224853516 -0.3065605163574219 L 26.56011390686035 31.81235885620117 L 28.23763275146484 37.02088165283203 L 24.82636260986328 32.7423210144043 L -0.7818965911865234 0.6233997344970703 L -2.076227188110352 -1 Z" stroke="none" fill="#fadb14"/>
        </g>
        <g id="Path-6" data-name="Path" transform="translate(43.386 24.483)" fill="#fadb14" stroke-miterlimit="10">
          <path d="M 0.3887172937393188 33.10432052612305 L -0.4782626926898956 32.64402389526367 L 9.519536972045898 -0.1458177417516708 L 9.627527236938477 -0.4999977350234985 L 9.997797012329102 -0.4999977350234985 L 26.46161651611328 -0.4999977350234985 L 27.27212715148926 -0.4999977350234985 L 26.93391609191895 0.173632875084877 C 26.92158317565918 0.2380145341157913 26.89354133605957 0.3439429104328156 26.81258964538574 0.4429797828197479 L 0.3887172937393188 33.10432052612305 Z" stroke="none"/>
          <path d="M -2.695617695280816e-06 32.78984069824219 L 26.42513656616211 0.1269322633743286 C 26.44793701171875 0.09975225478410721 26.4433765411377 0.03633225709199905 26.46161651611328 2.256469770145486e-06 L 9.997797012329102 2.256469770145486e-06 L -2.695617695280816e-06 32.78984069824219 M -2.455742597579956 37.41519165039063 L -0.9565327167510986 32.49819183349609 L 9.041267395019531 -0.291647732257843 L 9.257246971130371 -0.9999977350234985 L 9.997797012329102 -0.9999977350234985 L 26.46161651611328 -0.9999977350234985 L 28.08263778686523 -0.9999977350234985 L 27.40833473205566 0.3430745005607605 C 27.37979125976563 0.4549909830093384 27.32279014587402 0.609182596206665 27.19919967651367 0.7600558400154114 L 0.7774273157119751 33.41880035400391 L -2.455742597579956 37.41519165039063 Z" stroke="none" fill="#fadb14"/>
        </g>
      </g>
    </g>
  </g>
</svg>
