<svg xmlns="http://www.w3.org/2000/svg" xmlns:xlink="http://www.w3.org/1999/xlink" width="276" height="276" viewBox="0 0 276 276">
  <defs>
    <filter id="Oval_6" x="0" y="0" width="276" height="276" filterUnits="userSpaceOnUse">
      <feOffset dy="16" input="SourceAlpha"/>
      <feGaussianBlur stdDeviation="16" result="blur"/>
      <feFlood flood-color="#4965a6" flood-opacity="0.078"/>
      <feComposite operator="in" in2="blur"/>
      <feComposite in="SourceGraphic"/>
    </filter>
  </defs>
  <g id="그룹_3" data-name="그룹 3" transform="translate(558.5 -2647.5)">
    <g id="icon_bg3" transform="translate(-514.5 2663.5)">
      <g transform="matrix(1, 0, 0, 1, -44, -16)" filter="url(#Oval_6)">
        <circle id="Oval_6-2" data-name="Oval 6" cx="90" cy="90" r="90" transform="translate(48 32)" fill="#fff"/>
      </g>
      <circle id="Path" cx="4.5" cy="4.5" r="4.5" transform="translate(7 195)" fill="rgba(47,84,235,0.4)"/>
      <circle id="Path-2" data-name="Path" cx="5" cy="5" r="5" transform="translate(178 30)" fill="rgba(47,84,235,0.4)"/>
      <circle id="Path-3" data-name="Path" cx="1.5" cy="1.5" r="1.5" transform="translate(17 174)" fill="rgba(47,84,235,0.4)"/>
      <circle id="Oval_8" data-name="Oval 8" cx="6" cy="6" r="6" transform="translate(0 3)" fill="none" stroke="rgba(47,84,235,0.4)" stroke-miterlimit="10" stroke-width="1"/>
      <circle id="Oval_8-2" data-name="Oval 8" cx="2" cy="2" r="2" transform="translate(195)" fill="none" stroke="rgba(47,84,235,0.4)" stroke-miterlimit="10" stroke-width="1"/>
      <circle id="Oval_8-3" data-name="Oval 8" cx="10.5" cy="10.5" r="10.5" transform="translate(170 209)" fill="rgba(47,84,235,0.4)"/>
    </g>
    <g id="插图-响应式" transform="translate(-461 2725.5)">
      <g id="插图-响应式-2" data-name="插图-响应式" transform="translate(3 12)">
        <g id="Group_19" data-name="Group 19">
          <path id="Shape" d="M5.254,37.715A5.276,5.276,0,0,1,0,32.411V5.3A5.276,5.276,0,0,1,5.254,0h42.62a5.276,5.276,0,0,1,5.254,5.3V32.411a5.276,5.276,0,0,1-5.254,5.3Z" transform="translate(0 18.857)" fill="#1c2833" stroke="#fff" stroke-miterlimit="10" stroke-width="1.603"/>
          <path id="Shape-2" data-name="Shape" d="M31.8,0H5.2A5.251,5.251,0,0,0,0,5.3v6.482a2.333,2.333,0,0,0,2.313,2.357,2.333,2.333,0,0,0,2.313-2.357V4.714h27.75V47.143h-9.25a2.358,2.358,0,0,0,0,4.714h9.25v9.429H22.691a.089.089,0,0,1,.058.029,2.367,2.367,0,0,0,0,4.655.065.065,0,0,1-.058.029H31.8A5.251,5.251,0,0,0,37,60.7V5.3A5.251,5.251,0,0,0,31.8,0Z" transform="translate(37)" fill="#1c2833" stroke="#fff" stroke-miterlimit="10" stroke-width="1.603"/>
          <rect id="Rectangle_9" data-name="Rectangle 9" width="37" height="21" rx="1" transform="translate(8 27)" fill="#2f54eb"/>
        </g>
        <ellipse id="Oval" cx="2.372" cy="2.357" rx="2.372" ry="2.357" transform="translate(55.026 53.743)" fill="#1c2833" stroke="#fff" stroke-miterlimit="10" stroke-width="1.603"/>
      </g>
    </g>
  </g>
</svg>
